<?xml version="1.0" standalone="no"?><!-- Generator: Gravit.io --><svg xmlns="http://www.w3.org/2000/svg" xmlns:xlink="http://www.w3.org/1999/xlink" style="isolation:isolate" viewBox="562.8 263.2 661.313 569" width="661.313" height="569"><path d=" M 1130.999 581.913 C 1130.985 572.73 1128.379 529.659 1127.544 520.74 C 1124.211 485.141 1114.539 451.414 1098.53 419.559 C 1082.964 388.587 1062.414 361.347 1036.88 337.84 C 1011.226 314.221 982.298 295.992 950.096 283.152 C 916.737 269.851 881.971 263.2 845.8 263.2 C 807.407 263.2 770.665 270.665 735.574 285.595 C 701.708 300.005 671.725 320.337 645.625 346.592 C 619.537 372.835 599.338 402.974 585.027 437.01 C 570.209 472.252 562.8 509.148 562.8 547.7 L 562.8 547.7 C 562.8 586.252 570.209 623.148 585.027 658.39 C 599.338 692.426 619.537 722.565 645.625 748.808 C 671.725 775.063 701.708 795.396 735.574 809.805 C 770.665 824.735 807.407 832.2 845.8 832.2 C 885.955 832.2 924.246 824.059 960.672 807.778 C 995.828 792.064 1026.57 770.004 1052.897 741.597 C 1054.908 739.427 1071.993 720.149 1081.629 709.222 Q 1076.388 709.996 1052.897 713 Q 1027.348 716.267 992.86 716.007 C 973.503 730.877 951.854 744.903 935.78 752.088 C 907.274 764.829 877.28 771.2 845.8 771.2 C 815.698 771.2 786.917 765.358 759.457 753.674 C 732.905 742.377 709.382 726.42 688.886 705.802 C 668.378 685.172 652.502 661.487 641.259 634.747 C 629.62 607.066 623.8 578.05 623.8 547.7 L 623.8 547.7 C 623.8 517.35 629.62 488.335 641.259 460.653 C 652.502 433.913 668.378 410.228 688.886 389.598 C 709.382 368.98 732.905 353.023 759.457 341.726 C 786.917 330.042 815.699 324.2 845.8 324.2 C 874.163 324.2 901.397 329.405 927.503 339.814 C 952.74 349.877 975.427 364.178 995.564 382.717 C 1015.639 401.198 1031.793 422.61 1044.026 446.951 C 1056.024 470.823 1066.302 517.495 1067.648 559.955 Q 1078.158 565.672 1088 569 C 1112.684 577.473 1124.612 580.65 1130.999 581.913 Z " fill-rule="evenodd" fill="rgb(0,0,0)"/><path d=" M 824.798 689.297 C 864.279 691.9 1097.109 733.183 1211.407 639.571 C 1226.135 625.114 1225.979 613.461 1221.306 608.557 C 1219.329 606.484 1215.486 607.727 1213.659 608.012 C 1198.082 610.865 1159.275 608.159 1144.827 603.099 C 1130.381 598.041 1061.477 579.91 1022.889 543.511 C 1005.827 528.968 1000.855 512.756 987.688 525.138 C 965.204 555.747 972.948 545.417 965.284 556.669 C 948.25 581.676 938.688 599.704 927.798 619.329 C 906.344 622.19 916.478 622.476 829.772 619.602 C 806.449 623.695 804.526 644.485 804.201 654.784 C 803.876 665.084 801.693 681.009 824.798 689.297 Z " fill-rule="evenodd" fill="rgb(0,0,0)"/><path d=" M 815.8 490.74 C 815.8 474.171 829.231 460.74 845.8 460.74 C 862.369 460.74 875.8 474.171 875.8 490.74 C 875.8 507.309 862.369 520.74 845.8 520.74 C 829.231 520.74 815.8 507.309 815.8 490.74 Z " fill-rule="evenodd" fill="rgb(0,0,0)"/></svg>