<?xml version="1.0" standalone="no"?>
<!-- Generator: Gravit.io -->
<svg xmlns="http://www.w3.org/2000/svg" xmlns:xlink="http://www.w3.org/1999/xlink" style="isolation:isolate" viewBox="820 387 234.209 175.8" width="234.209" height="175.8">
  <g id="wlogo">
    <path d=" M 902.342 454.733 C 885.142 491.933 870.876 523.533 870.609 525 C 870.342 526.467 873.009 535.4 876.609 545 C 881.942 559 883.676 562.467 885.942 562.733 C 888.076 563.133 889.409 561.8 891.942 556.733 C 897.409 546.067 935.542 459.267 935.542 457.8 C 935.542 454.333 937.809 456.733 939.809 462.333 C 941.142 465.667 951.542 489.667 963.142 515.667 C 982.876 560.333 984.342 563.133 987.409 562.733 C 989.676 562.467 991.142 561 992.342 557.667 C 993.276 555.133 997.009 544.6 1000.742 534.333 C 1004.342 524.067 1016.476 491.133 1027.542 461.133 C 1038.609 431 1049.142 402.333 1050.876 397.4 L 1054.209 388.2 L 1033.409 388.6 L 1012.476 389 L 1000.742 423 C 994.209 441.667 987.542 461.133 986.076 466.333 C 984.609 471.4 982.876 476.067 982.476 476.6 C 981.942 477 972.209 457.133 960.876 432.2 C 941.809 390.6 939.942 387.133 936.876 387 C 933.809 387 931.409 391.533 902.342 454.733 Z " fill="rgb(0,0,0)" />
    <path d=" M 820.209 390.6 C 820.609 391.933 830.876 419.933 843.009 452.867 C 855.009 485.8 865.142 513.133 865.542 513.4 C 865.809 513.8 868.476 509 871.276 502.867 C 874.076 496.733 879.009 486.2 882.209 479.4 L 887.809 467.133 L 874.209 427.8 L 860.476 388.333 L 839.942 388.333 C 820.742 388.333 819.276 388.467 820.209 390.6 Z " fill="rgb(0,0,0)" />
  </g>
</svg>